solid OpenSCAD_Model
  facet normal -1 0 0
    outer loop
      vertex -10 -10 -0.0749998
      vertex -10 10 0.0749998
      vertex -10 10 -0.0749998
    endloop
  endfacet
  facet normal -1 -0 0
    outer loop
      vertex -10 10 0.0749998
      vertex -10 -10 -0.0749998
      vertex -10 -10 0.0749998
    endloop
  endfacet
  facet normal 0 0 1
    outer loop
      vertex 10 10 0.0749998
      vertex 3.98288 0 0.0749998
      vertex 10 -10 0.0749998
    endloop
  endfacet
  facet normal 0 0 1
    outer loop
      vertex 10 10 0.0749998
      vertex 3.96504 0.0723754 0.0749998
      vertex 3.98288 0 0.0749998
    endloop
  endfacet
  facet normal 0 0 1
    outer loop
      vertex 10 10 0.0749998
      vertex 3.52667 1.85094 0.0749998
      vertex 3.96504 0.0723754 0.0749998
    endloop
  endfacet
  facet normal 0 0 1
    outer loop
      vertex 10 10 0.0749998
      vertex 3.47724 1.90673 0.0749998
      vertex 3.52667 1.85094 0.0749998
    endloop
  endfacet
  facet normal 0 0 1
    outer loop
      vertex 10 10 0.0749998
      vertex 2.26253 3.27785 0.0749998
      vertex 3.47724 1.90673 0.0749998
    endloop
  endfacet
  facet normal 0 0 1
    outer loop
      vertex 10 10 0.0749998
      vertex 0.54978 3.92741 0.0749998
      vertex 2.26253 3.27785 0.0749998
    endloop
  endfacet
  facet normal 0 0 1
    outer loop
      vertex 10 10 0.0749998
      vertex 0.480083 3.95384 0.0749998
      vertex 0.54978 3.92741 0.0749998
    endloop
  endfacet
  facet normal -0 0 1
    outer loop
      vertex -10 10 0.0749998
      vertex 0.480083 3.95384 0.0749998
      vertex 10 10 0.0749998
    endloop
  endfacet
  facet normal 0 0 1
    outer loop
      vertex 0.480083 3.95384 0.0749998
      vertex -10 10 0.0749998
      vertex -1.33835 3.73304 0.0749998
    endloop
  endfacet
  facet normal 0 0 1
    outer loop
      vertex -10 10 0.0749998
      vertex -2.91988 2.68348 0.0749998
      vertex -1.41235 3.72406 0.0749998
    endloop
  endfacet
  facet normal 0 0 1
    outer loop
      vertex -3.86715 0.953165 0.0749998
      vertex -10 10 0.0749998
      vertex -3.86715 -0.953165 0.0749998
    endloop
  endfacet
  facet normal 0 0 1
    outer loop
      vertex -3.83251 1.01917 0.0749998
      vertex -10 10 0.0749998
      vertex -3.86715 0.953165 0.0749998
    endloop
  endfacet
  facet normal 0 0 1
    outer loop
      vertex -2.98123 2.64114 0.0749998
      vertex -10 10 0.0749998
      vertex -3.83251 1.01917 0.0749998
    endloop
  endfacet
  facet normal 0 0 1
    outer loop
      vertex -2.91988 2.68348 0.0749998
      vertex -10 10 0.0749998
      vertex -2.98123 2.64114 0.0749998
    endloop
  endfacet
  facet normal 0 0 1
    outer loop
      vertex -1.33835 3.73304 0.0749998
      vertex -10 10 0.0749998
      vertex -1.41235 3.72406 0.0749998
    endloop
  endfacet
  facet normal -0 0 1
    outer loop
      vertex 3.96504 -0.0723754 0.0749998
      vertex 10 -10 0.0749998
      vertex 3.98288 0 0.0749998
    endloop
  endfacet
  facet normal -0 0 1
    outer loop
      vertex 3.52667 -1.85094 0.0749998
      vertex 10 -10 0.0749998
      vertex 3.96504 -0.0723754 0.0749998
    endloop
  endfacet
  facet normal -0 0 1
    outer loop
      vertex 3.47724 -1.90673 0.0749998
      vertex 10 -10 0.0749998
      vertex 3.52667 -1.85094 0.0749998
    endloop
  endfacet
  facet normal -0 0 1
    outer loop
      vertex 2.26253 -3.27785 0.0749998
      vertex 10 -10 0.0749998
      vertex 3.47724 -1.90673 0.0749998
    endloop
  endfacet
  facet normal -0 0 1
    outer loop
      vertex 0.54978 -3.92741 0.0749998
      vertex 10 -10 0.0749998
      vertex 2.26253 -3.27785 0.0749998
    endloop
  endfacet
  facet normal -0 0 1
    outer loop
      vertex 0.480083 -3.95384 0.0749998
      vertex 10 -10 0.0749998
      vertex 0.54978 -3.92741 0.0749998
    endloop
  endfacet
  facet normal 0 0 1
    outer loop
      vertex -10 -10 0.0749998
      vertex 0.480083 -3.95384 0.0749998
      vertex -1.33835 -3.73304 0.0749998
    endloop
  endfacet
  facet normal 0 0 1
    outer loop
      vertex -10 -10 0.0749998
      vertex -1.33835 -3.73304 0.0749998
      vertex -1.41235 -3.72406 0.0749998
    endloop
  endfacet
  facet normal 0 0 1
    outer loop
      vertex -10 -10 0.0749998
      vertex -2.91988 -2.68348 0.0749998
      vertex -2.98123 -2.64114 0.0749998
    endloop
  endfacet
  facet normal 0 0 1
    outer loop
      vertex -10 -10 0.0749998
      vertex -3.86715 -0.953165 0.0749998
      vertex -10 10 0.0749998
    endloop
  endfacet
  facet normal 0 0 1
    outer loop
      vertex -3.86715 -0.953165 0.0749998
      vertex -10 -10 0.0749998
      vertex -3.83251 -1.01917 0.0749998
    endloop
  endfacet
  facet normal 0 0 1
    outer loop
      vertex 0.480083 -3.95384 0.0749998
      vertex -10 -10 0.0749998
      vertex 10 -10 0.0749998
    endloop
  endfacet
  facet normal 0 0 1
    outer loop
      vertex -2.91988 -2.68348 0.0749998
      vertex -10 -10 0.0749998
      vertex -1.41235 -3.72406 0.0749998
    endloop
  endfacet
  facet normal 0 0 1
    outer loop
      vertex -3.83251 -1.01917 0.0749998
      vertex -10 -10 0.0749998
      vertex -2.98123 -2.64114 0.0749998
    endloop
  endfacet
  facet normal 1 -0 0
    outer loop
      vertex 10 -10 0.0749998
      vertex 10 10 -0.0749998
      vertex 10 10 0.0749998
    endloop
  endfacet
  facet normal 1 0 0
    outer loop
      vertex 10 10 -0.0749998
      vertex 10 -10 0.0749998
      vertex 10 -10 -0.0749998
    endloop
  endfacet
  facet normal 0 0 -1
    outer loop
      vertex 10 -10 -0.0749998
      vertex 3.98288 0 -0.0749998
      vertex 10 10 -0.0749998
    endloop
  endfacet
  facet normal 0 0 -1
    outer loop
      vertex 10 -10 -0.0749998
      vertex 3.96504 -0.0723754 -0.0749998
      vertex 3.98288 0 -0.0749998
    endloop
  endfacet
  facet normal 0 0 -1
    outer loop
      vertex 10 -10 -0.0749998
      vertex 3.52667 -1.85094 -0.0749998
      vertex 3.96504 -0.0723754 -0.0749998
    endloop
  endfacet
  facet normal 0 0 -1
    outer loop
      vertex 10 -10 -0.0749998
      vertex 3.47724 -1.90673 -0.0749998
      vertex 3.52667 -1.85094 -0.0749998
    endloop
  endfacet
  facet normal 0 0 -1
    outer loop
      vertex 10 -10 -0.0749998
      vertex 2.26253 -3.27785 -0.0749998
      vertex 3.47724 -1.90673 -0.0749998
    endloop
  endfacet
  facet normal 0 0 -1
    outer loop
      vertex 10 -10 -0.0749998
      vertex 0.54978 -3.92741 -0.0749998
      vertex 2.26253 -3.27785 -0.0749998
    endloop
  endfacet
  facet normal 0 0 -1
    outer loop
      vertex 10 -10 -0.0749998
      vertex 0.480083 -3.95384 -0.0749998
      vertex 0.54978 -3.92741 -0.0749998
    endloop
  endfacet
  facet normal 0 0 -1
    outer loop
      vertex -10 -10 -0.0749998
      vertex 0.480083 -3.95384 -0.0749998
      vertex 10 -10 -0.0749998
    endloop
  endfacet
  facet normal -0 0 -1
    outer loop
      vertex 0.480083 -3.95384 -0.0749998
      vertex -10 -10 -0.0749998
      vertex -1.33835 -3.73304 -0.0749998
    endloop
  endfacet
  facet normal 0 0 -1
    outer loop
      vertex -10 -10 -0.0749998
      vertex -2.91988 -2.68348 -0.0749998
      vertex -1.41235 -3.72406 -0.0749998
    endloop
  endfacet
  facet normal -0 0 -1
    outer loop
      vertex -3.86715 -0.953165 -0.0749998
      vertex -10 -10 -0.0749998
      vertex -3.86715 0.953165 -0.0749998
    endloop
  endfacet
  facet normal -0 0 -1
    outer loop
      vertex -3.83251 -1.01917 -0.0749998
      vertex -10 -10 -0.0749998
      vertex -3.86715 -0.953165 -0.0749998
    endloop
  endfacet
  facet normal -0 0 -1
    outer loop
      vertex -2.98123 -2.64114 -0.0749998
      vertex -10 -10 -0.0749998
      vertex -3.83251 -1.01917 -0.0749998
    endloop
  endfacet
  facet normal -0 0 -1
    outer loop
      vertex -2.91988 -2.68348 -0.0749998
      vertex -10 -10 -0.0749998
      vertex -2.98123 -2.64114 -0.0749998
    endloop
  endfacet
  facet normal -0 0 -1
    outer loop
      vertex -1.33835 -3.73304 -0.0749998
      vertex -10 -10 -0.0749998
      vertex -1.41235 -3.72406 -0.0749998
    endloop
  endfacet
  facet normal 0 0 -1
    outer loop
      vertex 3.96504 0.0723754 -0.0749998
      vertex 10 10 -0.0749998
      vertex 3.98288 0 -0.0749998
    endloop
  endfacet
  facet normal 0 0 -1
    outer loop
      vertex 3.52667 1.85094 -0.0749998
      vertex 10 10 -0.0749998
      vertex 3.96504 0.0723754 -0.0749998
    endloop
  endfacet
  facet normal 0 0 -1
    outer loop
      vertex 3.47724 1.90673 -0.0749998
      vertex 10 10 -0.0749998
      vertex 3.52667 1.85094 -0.0749998
    endloop
  endfacet
  facet normal 0 0 -1
    outer loop
      vertex 2.26253 3.27785 -0.0749998
      vertex 10 10 -0.0749998
      vertex 3.47724 1.90673 -0.0749998
    endloop
  endfacet
  facet normal 0 0 -1
    outer loop
      vertex 0.54978 3.92741 -0.0749998
      vertex 10 10 -0.0749998
      vertex 2.26253 3.27785 -0.0749998
    endloop
  endfacet
  facet normal 0 0 -1
    outer loop
      vertex 0.480083 3.95384 -0.0749998
      vertex 10 10 -0.0749998
      vertex 0.54978 3.92741 -0.0749998
    endloop
  endfacet
  facet normal 0 0 -1
    outer loop
      vertex -10 10 -0.0749998
      vertex 0.480083 3.95384 -0.0749998
      vertex -1.33835 3.73304 -0.0749998
    endloop
  endfacet
  facet normal 0 0 -1
    outer loop
      vertex -10 10 -0.0749998
      vertex -1.33835 3.73304 -0.0749998
      vertex -1.41235 3.72406 -0.0749998
    endloop
  endfacet
  facet normal 0 0 -1
    outer loop
      vertex -10 10 -0.0749998
      vertex -2.91988 2.68348 -0.0749998
      vertex -2.98123 2.64114 -0.0749998
    endloop
  endfacet
  facet normal 0 0 -1
    outer loop
      vertex -10 10 -0.0749998
      vertex -3.86715 0.953165 -0.0749998
      vertex -10 -10 -0.0749998
    endloop
  endfacet
  facet normal 0 0 -1
    outer loop
      vertex -3.86715 0.953165 -0.0749998
      vertex -10 10 -0.0749998
      vertex -3.83251 1.01917 -0.0749998
    endloop
  endfacet
  facet normal 0 0 -1
    outer loop
      vertex 0.480083 3.95384 -0.0749998
      vertex -10 10 -0.0749998
      vertex 10 10 -0.0749998
    endloop
  endfacet
  facet normal 0 0 -1
    outer loop
      vertex -2.91988 2.68348 -0.0749998
      vertex -10 10 -0.0749998
      vertex -1.41235 3.72406 -0.0749998
    endloop
  endfacet
  facet normal 0 0 -1
    outer loop
      vertex -3.83251 1.01917 -0.0749998
      vertex -10 10 -0.0749998
      vertex -2.98123 2.64114 -0.0749998
    endloop
  endfacet
  facet normal 0 -1 0
    outer loop
      vertex -10 -10 -0.0749998
      vertex 10 -10 0.0749998
      vertex -10 -10 0.0749998
    endloop
  endfacet
  facet normal 0 -1 -0
    outer loop
      vertex 10 -10 0.0749998
      vertex -10 -10 -0.0749998
      vertex 10 -10 -0.0749998
    endloop
  endfacet
  facet normal 0 1 -0
    outer loop
      vertex 10 10 -0.0749998
      vertex -10 10 0.0749998
      vertex 10 10 0.0749998
    endloop
  endfacet
  facet normal 0 1 0
    outer loop
      vertex -10 10 0.0749998
      vertex 10 10 -0.0749998
      vertex -10 10 -0.0749998
    endloop
  endfacet
  facet normal 0.864482 0.453715 -0.216362
    outer loop
      vertex -2.99404 -2.65249 0
      vertex -3.83251 -1.01917 0.0749998
      vertex -2.98123 -2.64114 0.0749998
    endloop
  endfacet
  facet normal 0.864482 0.453715 -0.216362
    outer loop
      vertex -3.83251 -1.01917 0.0749998
      vertex -2.99404 -2.65249 0
      vertex -3.88377 -0.957262 0
    endloop
  endfacet
  facet normal -0.730781 0.647416 0.21636
    outer loop
      vertex 2.27226 -3.29193 0
      vertex 3.47724 -1.90673 -0.0749998
      vertex 2.26253 -3.27785 -0.0749998
    endloop
  endfacet
  facet normal -0.730781 0.647415 0.216362
    outer loop
      vertex 3.47724 -1.90673 -0.0749998
      vertex 2.27226 -3.29193 0
      vertex 3.54182 -1.85889 0
    endloop
  endfacet
  facet normal -0.947943 0.233647 0.216362
    outer loop
      vertex 4 0 0
      vertex 3.98288 0 -0.0749998
      vertex 3.96504 -0.0723754 -0.0749998
    endloop
  endfacet
  facet normal 0.864483 0.453714 0.216363
    outer loop
      vertex -3.83251 -1.01917 -0.0749998
      vertex -3.86715 -0.953165 -0.0749998
      vertex -3.88377 -0.957262 0
    endloop
  endfacet
  facet normal 0.117681 -0.969195 0.216363
    outer loop
      vertex -1.33835 3.73304 -0.0749998
      vertex 0.482146 3.97083 0
      vertex -1.41842 3.74006 0
    endloop
  endfacet
  facet normal 0.117682 -0.969195 0.21636
    outer loop
      vertex 0.482146 3.97083 0
      vertex -1.33835 3.73304 -0.0749998
      vertex 0.480083 3.95384 -0.0749998
    endloop
  endfacet
  facet normal -0.346205 -0.912869 0.21636
    outer loop
      vertex 0.54978 3.92741 -0.0749998
      vertex 2.27226 3.29193 0
      vertex 0.482146 3.97083 0
    endloop
  endfacet
  facet normal -0.346205 -0.912869 0.21636
    outer loop
      vertex 2.27226 3.29193 0
      vertex 0.54978 3.92741 -0.0749998
      vertex 2.26253 3.27785 -0.0749998
    endloop
  endfacet
  facet normal -0.730781 0.647415 -0.216362
    outer loop
      vertex 2.27226 -3.29193 0
      vertex 3.47724 -1.90673 0.0749998
      vertex 3.54182 -1.85889 0
    endloop
  endfacet
  facet normal -0.730781 0.647416 -0.21636
    outer loop
      vertex 3.47724 -1.90673 0.0749998
      vertex 2.27226 -3.29193 0
      vertex 2.26253 -3.27785 0.0749998
    endloop
  endfacet
  facet normal 0.864482 0.453715 0.216362
    outer loop
      vertex -2.99404 -2.65249 0
      vertex -3.83251 -1.01917 -0.0749998
      vertex -3.88377 -0.957262 0
    endloop
  endfacet
  facet normal 0.864482 0.453715 0.216362
    outer loop
      vertex -3.83251 -1.01917 -0.0749998
      vertex -2.99404 -2.65249 0
      vertex -2.98123 -2.64114 -0.0749998
    endloop
  endfacet
  facet normal -0.947943 0.233647 -0.216362
    outer loop
      vertex 3.98288 0 0.0749998
      vertex 4 0 0
      vertex 3.96504 -0.0723754 0.0749998
    endloop
  endfacet
  facet normal -0.346205 -0.912869 0.21636
    outer loop
      vertex 0.54978 3.92741 -0.0749998
      vertex 0.482146 3.97083 0
      vertex 0.480083 3.95384 -0.0749998
    endloop
  endfacet
  facet normal -0.730781 -0.647416 -0.21636
    outer loop
      vertex 2.27226 3.29193 0
      vertex 3.47724 1.90673 0.0749998
      vertex 2.26253 3.27785 0.0749998
    endloop
  endfacet
  facet normal -0.730781 -0.647415 -0.216362
    outer loop
      vertex 3.47724 1.90673 0.0749998
      vertex 2.27226 3.29193 0
      vertex 3.54182 1.85889 0
    endloop
  endfacet
  facet normal -0.346205 -0.912869 -0.21636
    outer loop
      vertex 2.27226 3.29193 0
      vertex 0.54978 3.92741 0.0749998
      vertex 0.482146 3.97083 0
    endloop
  endfacet
  facet normal -0.346205 -0.912869 -0.21636
    outer loop
      vertex 0.54978 3.92741 0.0749998
      vertex 2.27226 3.29193 0
      vertex 2.26253 3.27785 0.0749998
    endloop
  endfacet
  facet normal -0.730781 -0.647416 0.21636
    outer loop
      vertex 3.47724 1.90673 -0.0749998
      vertex 2.27226 3.29193 0
      vertex 2.26253 3.27785 -0.0749998
    endloop
  endfacet
  facet normal -0.730781 -0.647415 0.216362
    outer loop
      vertex 2.27226 3.29193 0
      vertex 3.47724 1.90673 -0.0749998
      vertex 3.54182 1.85889 0
    endloop
  endfacet
  facet normal 0.117679 -0.969195 0.216361
    outer loop
      vertex -1.41235 3.72406 -0.0749998
      vertex -1.33835 3.73304 -0.0749998
      vertex -1.41842 3.74006 0
    endloop
  endfacet
  facet normal -0.947943 0.233647 0.216363
    outer loop
      vertex 3.54182 -1.85889 0
      vertex 3.96504 -0.0723754 -0.0749998
      vertex 3.52667 -1.85094 -0.0749998
    endloop
  endfacet
  facet normal -0.947943 0.233647 0.216362
    outer loop
      vertex 3.96504 -0.0723754 -0.0749998
      vertex 3.54182 -1.85889 0
      vertex 4 0 0
    endloop
  endfacet
  facet normal -0.730781 0.647415 0.216363
    outer loop
      vertex 3.54182 -1.85889 0
      vertex 3.52667 -1.85094 -0.0749998
      vertex 3.47724 -1.90673 -0.0749998
    endloop
  endfacet
  facet normal -0.947943 -0.233647 -0.216362
    outer loop
      vertex 4 0 0
      vertex 3.98288 0 0.0749998
      vertex 3.96504 0.0723754 0.0749998
    endloop
  endfacet
  facet normal -0.346205 -0.912869 -0.21636
    outer loop
      vertex 0.482146 3.97083 0
      vertex 0.54978 3.92741 0.0749998
      vertex 0.480083 3.95384 0.0749998
    endloop
  endfacet
  facet normal 0.864483 0.453714 -0.216363
    outer loop
      vertex -3.86715 -0.953165 0.0749998
      vertex -3.83251 -1.01917 0.0749998
      vertex -3.88377 -0.957262 0
    endloop
  endfacet
  facet normal -0.730781 -0.647415 -0.216363
    outer loop
      vertex 3.54182 1.85889 0
      vertex 3.52667 1.85094 0.0749998
      vertex 3.47724 1.90673 0.0749998
    endloop
  endfacet
  facet normal -0.947943 -0.233647 -0.216363
    outer loop
      vertex 3.54182 1.85889 0
      vertex 3.96504 0.0723754 0.0749998
      vertex 3.52667 1.85094 0.0749998
    endloop
  endfacet
  facet normal -0.947943 -0.233647 -0.216362
    outer loop
      vertex 3.96504 0.0723754 0.0749998
      vertex 3.54182 1.85889 0
      vertex 4 0 0
    endloop
  endfacet
  facet normal 0.554608 -0.803491 0.216362
    outer loop
      vertex -2.98123 2.64114 -0.0749998
      vertex -2.91988 2.68348 -0.0749998
      vertex -2.99404 2.65249 0
    endloop
  endfacet
  facet normal 0.554608 0.803491 -0.216362
    outer loop
      vertex -2.98123 -2.64114 0.0749998
      vertex -2.91988 -2.68348 0.0749998
      vertex -2.99404 -2.65249 0
    endloop
  endfacet
  facet normal 0.554609 0.80349 0.216362
    outer loop
      vertex -2.91988 -2.68348 -0.0749998
      vertex -1.41842 -3.74006 0
      vertex -1.41235 -3.72406 -0.0749998
    endloop
  endfacet
  facet normal 0.554609 0.80349 0.216364
    outer loop
      vertex -1.41842 -3.74006 0
      vertex -2.91988 -2.68348 -0.0749998
      vertex -2.99404 -2.65249 0
    endloop
  endfacet
  facet normal 0.117682 0.969195 -0.21636
    outer loop
      vertex 0.482146 -3.97083 0
      vertex -1.33835 -3.73304 0.0749998
      vertex 0.480083 -3.95384 0.0749998
    endloop
  endfacet
  facet normal 0.117681 0.969195 -0.216363
    outer loop
      vertex -1.33835 -3.73304 0.0749998
      vertex 0.482146 -3.97083 0
      vertex -1.41842 -3.74006 0
    endloop
  endfacet
  facet normal 0.117679 0.969195 0.216361
    outer loop
      vertex -1.33835 -3.73304 -0.0749998
      vertex -1.41235 -3.72406 -0.0749998
      vertex -1.41842 -3.74006 0
    endloop
  endfacet
  facet normal -0.346205 0.912869 0.21636
    outer loop
      vertex 0.482146 -3.97083 0
      vertex 0.54978 -3.92741 -0.0749998
      vertex 0.480083 -3.95384 -0.0749998
    endloop
  endfacet
  facet normal -0.730781 0.647415 -0.216363
    outer loop
      vertex 3.52667 -1.85094 0.0749998
      vertex 3.54182 -1.85889 0
      vertex 3.47724 -1.90673 0.0749998
    endloop
  endfacet
  facet normal -0.947943 0.233647 -0.216362
    outer loop
      vertex 3.54182 -1.85889 0
      vertex 3.96504 -0.0723754 0.0749998
      vertex 4 0 0
    endloop
  endfacet
  facet normal -0.947943 0.233647 -0.216363
    outer loop
      vertex 3.96504 -0.0723754 0.0749998
      vertex 3.54182 -1.85889 0
      vertex 3.52667 -1.85094 0.0749998
    endloop
  endfacet
  facet normal 0.976313 0 0.216363
    outer loop
      vertex -3.88377 0.957262 0
      vertex -3.86715 -0.953165 -0.0749998
      vertex -3.86715 0.953165 -0.0749998
    endloop
  endfacet
  facet normal 0.976313 0 0.216363
    outer loop
      vertex -3.86715 -0.953165 -0.0749998
      vertex -3.88377 0.957262 0
      vertex -3.88377 -0.957262 0
    endloop
  endfacet
  facet normal -0.730781 -0.647415 0.216363
    outer loop
      vertex 3.52667 1.85094 -0.0749998
      vertex 3.54182 1.85889 0
      vertex 3.47724 1.90673 -0.0749998
    endloop
  endfacet
  facet normal -0.947943 -0.233647 0.216363
    outer loop
      vertex 3.96504 0.0723754 -0.0749998
      vertex 3.54182 1.85889 0
      vertex 3.52667 1.85094 -0.0749998
    endloop
  endfacet
  facet normal -0.947943 -0.233647 0.216362
    outer loop
      vertex 3.54182 1.85889 0
      vertex 3.96504 0.0723754 -0.0749998
      vertex 4 0 0
    endloop
  endfacet
  facet normal 0.864483 -0.453714 -0.216363
    outer loop
      vertex -3.83251 1.01917 0.0749998
      vertex -3.86715 0.953165 0.0749998
      vertex -3.88377 0.957262 0
    endloop
  endfacet
  facet normal 0.554608 0.803491 0.216362
    outer loop
      vertex -2.91988 -2.68348 -0.0749998
      vertex -2.98123 -2.64114 -0.0749998
      vertex -2.99404 -2.65249 0
    endloop
  endfacet
  facet normal -0.346205 0.912869 -0.21636
    outer loop
      vertex 2.27226 -3.29193 0
      vertex 0.54978 -3.92741 0.0749998
      vertex 2.26253 -3.27785 0.0749998
    endloop
  endfacet
  facet normal -0.346205 0.912869 -0.21636
    outer loop
      vertex 0.54978 -3.92741 0.0749998
      vertex 2.27226 -3.29193 0
      vertex 0.482146 -3.97083 0
    endloop
  endfacet
  facet normal -0.346205 0.912869 0.21636
    outer loop
      vertex 0.54978 -3.92741 -0.0749998
      vertex 2.27226 -3.29193 0
      vertex 2.26253 -3.27785 -0.0749998
    endloop
  endfacet
  facet normal -0.346205 0.912869 0.21636
    outer loop
      vertex 2.27226 -3.29193 0
      vertex 0.54978 -3.92741 -0.0749998
      vertex 0.482146 -3.97083 0
    endloop
  endfacet
  facet normal 0.117682 0.969195 0.21636
    outer loop
      vertex -1.33835 -3.73304 -0.0749998
      vertex 0.482146 -3.97083 0
      vertex 0.480083 -3.95384 -0.0749998
    endloop
  endfacet
  facet normal 0.117681 0.969195 0.216363
    outer loop
      vertex 0.482146 -3.97083 0
      vertex -1.33835 -3.73304 -0.0749998
      vertex -1.41842 -3.74006 0
    endloop
  endfacet
  facet normal -0.346205 0.912869 -0.21636
    outer loop
      vertex 0.54978 -3.92741 0.0749998
      vertex 0.482146 -3.97083 0
      vertex 0.480083 -3.95384 0.0749998
    endloop
  endfacet
  facet normal 0.117679 0.969195 -0.216361
    outer loop
      vertex -1.41235 -3.72406 0.0749998
      vertex -1.33835 -3.73304 0.0749998
      vertex -1.41842 -3.74006 0
    endloop
  endfacet
  facet normal 0.554609 0.80349 -0.216362
    outer loop
      vertex -1.41842 -3.74006 0
      vertex -2.91988 -2.68348 0.0749998
      vertex -1.41235 -3.72406 0.0749998
    endloop
  endfacet
  facet normal 0.554609 0.80349 -0.216364
    outer loop
      vertex -2.91988 -2.68348 0.0749998
      vertex -1.41842 -3.74006 0
      vertex -2.99404 -2.65249 0
    endloop
  endfacet
  facet normal 0.976313 0 -0.216363
    outer loop
      vertex -3.86715 -0.953165 0.0749998
      vertex -3.88377 0.957262 0
      vertex -3.86715 0.953165 0.0749998
    endloop
  endfacet
  facet normal 0.976313 0 -0.216363
    outer loop
      vertex -3.88377 0.957262 0
      vertex -3.86715 -0.953165 0.0749998
      vertex -3.88377 -0.957262 0
    endloop
  endfacet
  facet normal -0.947943 -0.233647 0.216362
    outer loop
      vertex 3.98288 0 -0.0749998
      vertex 4 0 0
      vertex 3.96504 0.0723754 -0.0749998
    endloop
  endfacet
  facet normal 0.117679 -0.969195 -0.216361
    outer loop
      vertex -1.33835 3.73304 0.0749998
      vertex -1.41235 3.72406 0.0749998
      vertex -1.41842 3.74006 0
    endloop
  endfacet
  facet normal 0.864483 -0.453714 0.216363
    outer loop
      vertex -3.86715 0.953165 -0.0749998
      vertex -3.83251 1.01917 -0.0749998
      vertex -3.88377 0.957262 0
    endloop
  endfacet
  facet normal 0.864482 -0.453715 0.216362
    outer loop
      vertex -2.99404 2.65249 0
      vertex -3.83251 1.01917 -0.0749998
      vertex -2.98123 2.64114 -0.0749998
    endloop
  endfacet
  facet normal 0.864482 -0.453715 0.216362
    outer loop
      vertex -3.83251 1.01917 -0.0749998
      vertex -2.99404 2.65249 0
      vertex -3.88377 0.957262 0
    endloop
  endfacet
  facet normal 0.864482 -0.453715 -0.216362
    outer loop
      vertex -3.83251 1.01917 0.0749998
      vertex -2.99404 2.65249 0
      vertex -2.98123 2.64114 0.0749998
    endloop
  endfacet
  facet normal 0.864482 -0.453715 -0.216362
    outer loop
      vertex -2.99404 2.65249 0
      vertex -3.83251 1.01917 0.0749998
      vertex -3.88377 0.957262 0
    endloop
  endfacet
  facet normal 0.117681 -0.969195 -0.216363
    outer loop
      vertex 0.482146 3.97083 0
      vertex -1.33835 3.73304 0.0749998
      vertex -1.41842 3.74006 0
    endloop
  endfacet
  facet normal 0.117682 -0.969195 -0.21636
    outer loop
      vertex -1.33835 3.73304 0.0749998
      vertex 0.482146 3.97083 0
      vertex 0.480083 3.95384 0.0749998
    endloop
  endfacet
  facet normal 0.554608 -0.803491 -0.216362
    outer loop
      vertex -2.91988 2.68348 0.0749998
      vertex -2.98123 2.64114 0.0749998
      vertex -2.99404 2.65249 0
    endloop
  endfacet
  facet normal 0.554609 -0.80349 -0.216364
    outer loop
      vertex -1.41842 3.74006 0
      vertex -2.91988 2.68348 0.0749998
      vertex -2.99404 2.65249 0
    endloop
  endfacet
  facet normal 0.554609 -0.80349 -0.216362
    outer loop
      vertex -2.91988 2.68348 0.0749998
      vertex -1.41842 3.74006 0
      vertex -1.41235 3.72406 0.0749998
    endloop
  endfacet
  facet normal 0.554609 -0.80349 0.216364
    outer loop
      vertex -2.91988 2.68348 -0.0749998
      vertex -1.41842 3.74006 0
      vertex -2.99404 2.65249 0
    endloop
  endfacet
  facet normal 0.554609 -0.80349 0.216362
    outer loop
      vertex -1.41842 3.74006 0
      vertex -2.91988 2.68348 -0.0749998
      vertex -1.41235 3.72406 -0.0749998
    endloop
  endfacet
endsolid OpenSCAD_Model
